<svg width="116" height="18" viewBox="0 0 116 18" fill="none" xmlns="http://www.w3.org/2000/svg">
<g id="Group 1000005193">
<path id="Vector" d="M65.6749 13.4269L64.9051 12.6032L63.4389 11.0353C63.7839 9.6742 63.8222 8.28763 63.5188 7.17138L63.0492 5.42862L61.2988 5.89612L60.3533 6.14735L60.1457 4.88799C60.1073 4.66219 60.0658 4.40778 59.9923 4.1311C59.9093 3.82262 59.8039 3.53004 59.6793 3.25018C58.7913 1.27527 56.878 0 54.6771 0C54.1852 0 53.6869 0.0667846 53.2046 0.193993C52.2814 0.438869 51.4765 0.9 50.8249 1.50106C49.3938 2.82721 48.723 4.84346 49.2533 6.81201C49.3236 7.07279 49.413 7.32403 49.5184 7.5689C48.3365 9.21943 47.9437 11.242 48.4739 13.2074C48.8572 14.6353 49.659 15.8152 50.7386 16.6452C51.8598 17.5103 53.278 18 54.8528 18C55.5332 18 56.2295 17.9078 56.9195 17.7233C57.8107 17.4848 58.6188 17.1509 59.3216 16.7311C59.3599 16.7629 59.3918 16.7883 59.427 16.8138L59.5515 16.7756L60.5481 16.5085L60.8867 16.4194L62.6244 15.9551L64.049 15.5767L66.9622 14.8007L65.6749 13.4269ZM62.6244 14.0883L59.8869 14.8929C59.8869 14.8929 59.8805 14.8866 59.871 14.877C59.7176 14.718 59.5547 14.5654 59.3822 14.4286C58.7562 15.0392 57.8107 15.618 56.4467 15.9806C55.9005 16.1269 55.3671 16.1968 54.8496 16.1968C53.623 16.1968 52.5146 15.7993 51.6649 15.0742C50.9878 14.4954 50.4799 13.7067 50.2211 12.7399C49.7101 10.835 50.3904 9.01908 51.7512 7.75972C51.4286 7.39718 51.1571 6.91696 51.0005 6.3477C50.6843 5.16785 51.0325 3.93393 51.8374 3.04983C52.307 2.53463 52.9299 2.1371 53.6709 1.93993C54.0095 1.85089 54.3449 1.80636 54.6739 1.80636C56.1976 1.80636 57.5743 2.7318 58.1301 4.25513C58.1716 4.36643 58.2068 4.48092 58.2387 4.59859C58.2898 4.7894 58.3218 4.98339 58.3537 5.18057L56.2136 5.83251L58.6476 8.47208L61.7651 7.63887C62.0782 8.79965 61.8482 10.3102 61.3882 11.4965L63.193 13.4237L63.5763 13.8307L62.6212 14.0852L62.6244 14.0883Z" fill="#111111"/>
<path id="Vector_2" d="M0 0.71875H5.82715C7.76222 0.71875 12.96 0.953914 12.96 6.56289C12.96 10.2779 10.6304 12.121 5.82715 12.264V17.2787H0V0.71875Z" fill="#111111"/>
<path id="Vector_3" d="M31.6784 8.97724C31.6784 13.7793 28.0269 17.2787 23.0865 17.2787C18.1462 17.2787 14.3984 13.7793 14.3984 8.97724C14.3984 4.17515 18.05 0.71875 23.0609 0.71875C28.0718 0.71875 31.6784 4.21816 31.6784 8.97724Z" fill="#111111"/>
<path id="Vector_4" d="M33.1172 0.71875H38.9443C40.8794 0.71875 46.0772 0.953914 46.0772 6.56289C46.0772 10.2779 43.7476 12.121 38.9443 12.264V17.2787H33.1172V0.71875Z" fill="#111111"/>
<path id="Vector_5" d="M69.1172 0.71875H74.9443C76.8794 0.71875 82.0772 0.953914 82.0772 6.56289C82.0772 10.2779 79.7476 12.121 74.9443 12.264V17.2787H69.1172V0.71875Z" fill="#111111"/>
<path id="Vector_6" d="M82.8047 8.9757C82.8047 4.21881 86.4562 0.71875 91.4671 0.71875C96.478 0.71875 100.085 4.21881 100.085 8.9757C100.085 13.7326 96.4331 17.2787 91.4928 17.2787C86.5524 17.2787 82.8047 13.7787 82.8047 8.9757Z" fill="#111111"/>
<path id="Vector_7" d="M102.242 0.71875H108.069C110.004 0.71875 115.202 0.953914 115.202 6.56289C115.202 10.2779 112.873 12.121 108.069 12.264V17.2787H102.242V0.71875Z" fill="#111111"/>
</g>
</svg>
