<svg width="16" height="17" viewBox="0 0 16 17" fill="none" xmlns="http://www.w3.org/2000/svg">
<g id="Calendar">
<path id="Fill 1" fill-rule="evenodd" clip-rule="evenodd" d="M14.5008 7.42969H1.13281C0.822313 7.42969 0.570312 7.17769 0.570312 6.86719C0.570312 6.55669 0.822313 6.30469 1.13281 6.30469H14.5008C14.8113 6.30469 15.0633 6.55669 15.0633 6.86719C15.0633 7.17769 14.8113 7.42969 14.5008 7.42969Z" fill="#B8B6BE"/>
<path id="Fill 3" fill-rule="evenodd" clip-rule="evenodd" d="M11.1514 10.3594C10.8409 10.3594 10.5859 10.1074 10.5859 9.79688C10.5859 9.48638 10.8342 9.23438 11.1447 9.23438H11.1514C11.4619 9.23438 11.7139 9.48638 11.7139 9.79688C11.7139 10.1074 11.4619 10.3594 11.1514 10.3594Z" fill="#B8B6BE"/>
<path id="Fill 5" fill-rule="evenodd" clip-rule="evenodd" d="M7.82331 10.3594C7.51281 10.3594 7.25781 10.1074 7.25781 9.79688C7.25781 9.48638 7.50606 9.23438 7.81656 9.23438H7.82331C8.13381 9.23438 8.38581 9.48638 8.38581 9.79688C8.38581 10.1074 8.13381 10.3594 7.82331 10.3594Z" fill="#B8B6BE"/>
<path id="Fill 7" fill-rule="evenodd" clip-rule="evenodd" d="M4.48812 10.3594C4.17762 10.3594 3.92188 10.1074 3.92188 9.79688C3.92188 9.48638 4.17087 9.23438 4.48137 9.23438H4.48812C4.79862 9.23438 5.05062 9.48638 5.05062 9.79688C5.05062 10.1074 4.79862 10.3594 4.48812 10.3594Z" fill="#B8B6BE"/>
<path id="Fill 9" fill-rule="evenodd" clip-rule="evenodd" d="M11.1514 13.2734C10.8409 13.2734 10.5859 13.0214 10.5859 12.7109C10.5859 12.4004 10.8342 12.1484 11.1447 12.1484H11.1514C11.4619 12.1484 11.7139 12.4004 11.7139 12.7109C11.7139 13.0214 11.4619 13.2734 11.1514 13.2734Z" fill="#B8B6BE"/>
<path id="Fill 11" fill-rule="evenodd" clip-rule="evenodd" d="M7.82331 13.2734C7.51281 13.2734 7.25781 13.0214 7.25781 12.7109C7.25781 12.4004 7.50606 12.1484 7.81656 12.1484H7.82331C8.13381 12.1484 8.38581 12.4004 8.38581 12.7109C8.38581 13.0214 8.13381 13.2734 7.82331 13.2734Z" fill="#B8B6BE"/>
<path id="Fill 13" fill-rule="evenodd" clip-rule="evenodd" d="M4.48812 13.2734C4.17762 13.2734 3.92188 13.0214 3.92188 12.7109C3.92188 12.4004 4.17087 12.1484 4.48137 12.1484H4.48812C4.79862 12.1484 5.05062 12.4004 5.05062 12.7109C5.05062 13.0214 4.79862 13.2734 4.48812 13.2734Z" fill="#B8B6BE"/>
<path id="Fill 15" fill-rule="evenodd" clip-rule="evenodd" d="M10.8438 4.34325C10.5333 4.34325 10.2812 4.09125 10.2812 3.78075V1.3125C10.2812 1.002 10.5333 0.75 10.8438 0.75C11.1543 0.75 11.4062 1.002 11.4062 1.3125V3.78075C11.4062 4.09125 11.1543 4.34325 10.8438 4.34325Z" fill="#B8B6BE"/>
<path id="Fill 17" fill-rule="evenodd" clip-rule="evenodd" d="M4.78906 4.34325C4.47856 4.34325 4.22656 4.09125 4.22656 3.78075V1.3125C4.22656 1.002 4.47856 0.75 4.78906 0.75C5.09956 0.75 5.35156 1.002 5.35156 1.3125V3.78075C5.35156 4.09125 5.09956 4.34325 4.78906 4.34325Z" fill="#B8B6BE"/>
<g id="Group 21">
<mask id="mask0_5851_4071" style="mask-type:luminance" maskUnits="userSpaceOnUse" x="0" y="1" width="16" height="16">
<path id="Clip 20" fill-rule="evenodd" clip-rule="evenodd" d="M0.5 1.9375H15.125V16.8782H0.5V1.9375Z" fill="white"/>
</mask>
<g mask="url(#mask0_5851_4071)">
<path id="Fill 19" fill-rule="evenodd" clip-rule="evenodd" d="M4.64075 3.0625C2.696 3.0625 1.625 4.09975 1.625 5.983V12.7697C1.625 14.6942 2.696 15.7532 4.64075 15.7532H10.9843C12.929 15.7532 14 14.7137 14 12.8267V5.983C14.003 5.05675 13.754 4.33675 13.2597 3.84175C12.7512 3.33175 11.9675 3.0625 10.991 3.0625H4.64075ZM10.9843 16.8783H4.64075C2.087 16.8783 0.5 15.304 0.5 12.7697V5.983C0.5 3.487 2.087 1.9375 4.64075 1.9375H10.991C12.2727 1.9375 13.3325 2.3215 14.0563 3.04675C14.759 3.7525 15.1287 4.76725 15.125 5.9845V12.8267C15.125 15.3258 13.538 16.8783 10.9843 16.8783Z" fill="#B8B6BE"/>
</g>
</g>
</g>
</svg>
