<svg width="13" height="16" viewBox="0 0 13 16" fill="none" xmlns="http://www.w3.org/2000/svg">
<g id="Location">
<path id="Fill 1" fill-rule="evenodd" clip-rule="evenodd" d="M6.1875 5.375C5.46375 5.375 4.875 5.96375 4.875 6.68825C4.875 7.412 5.46375 8 6.1875 8C6.91125 8 7.5 7.412 7.5 6.68825C7.5 5.96375 6.91125 5.375 6.1875 5.375ZM6.1875 9.125C4.8435 9.125 3.75 8.03225 3.75 6.68825C3.75 5.3435 4.8435 4.25 6.1875 4.25C7.5315 4.25 8.625 5.3435 8.625 6.68825C8.625 8.03225 7.5315 9.125 6.1875 9.125Z" fill="#B8B6BE"/>
<g id="Group 5">
<mask id="mask0_5851_5676" style="mask-type:luminance" maskUnits="userSpaceOnUse" x="0" y="0" width="13" height="16">
<path id="Clip 4" fill-rule="evenodd" clip-rule="evenodd" d="M0 0.5H12.3746V15.125H0V0.5Z" fill="white"/>
</mask>
<g mask="url(#mask0_5851_5676)">
<path id="Fill 3" fill-rule="evenodd" clip-rule="evenodd" d="M6.1875 1.625C3.396 1.625 1.125 3.91775 1.125 6.73475C1.125 10.319 5.343 13.811 6.1875 13.997C7.032 13.8103 11.25 10.3182 11.25 6.73475C11.25 3.91775 8.979 1.625 6.1875 1.625ZM6.1875 15.125C4.842 15.125 0 10.961 0 6.73475C0 3.29675 2.77575 0.5 6.1875 0.5C9.59925 0.5 12.375 3.29675 12.375 6.73475C12.375 10.961 7.533 15.125 6.1875 15.125Z" fill="#B8B6BE"/>
</g>
</g>
</g>
</svg>
