<svg width="20" height="20" viewBox="0 0 20 20" fill="none" xmlns="http://www.w3.org/2000/svg">
<g id="Frame 1000006121">
<g id="Group 1000005240">
<path id="Vector" fill-rule="evenodd" clip-rule="evenodd" d="M17.25 14C17.25 13.4765 17.1158 12.9623 16.8611 12.51C16.6064 12.0576 16.2402 11.6832 15.8 11.425V8.5C15.8 7.04131 15.2399 5.64236 14.2428 4.61091C13.2457 3.57946 11.8934 3 10.4833 3H9.51667C8.1066 3 6.75428 3.57946 5.75722 4.61091C4.76015 5.64236 4.2 7.04131 4.2 8.5V11.425C3.75978 11.6832 3.39363 12.0576 3.1389 12.51C2.88418 12.9623 2.74998 13.4765 2.75 14C2.75 14.5304 2.95369 15.0391 3.31626 15.4142C3.67883 15.7893 4.17058 16 4.68333 16H15.3167C15.8294 16 16.3212 15.7893 16.6837 15.4142C17.0463 15.0391 17.25 14.5304 17.25 14ZM14.8333 12.058L15.1185 12.191L15.1717 12.215C15.5031 12.3706 15.7843 12.6217 15.9814 12.9383C16.1785 13.2548 16.2834 13.6234 16.2833 14C16.2833 14.2652 16.1815 14.5196 16.0002 14.7071C15.8189 14.8946 15.573 15 15.3167 15H4.68333C4.42696 15 4.18108 14.8946 3.9998 14.7071C3.81851 14.5196 3.71667 14.2652 3.71667 14C3.71667 13.231 4.15167 12.533 4.82833 12.216L4.8815 12.191L5.16667 12.058V8.5C5.16667 7.30653 5.62497 6.16193 6.44075 5.31802C7.25654 4.47411 8.36297 4 9.51667 4H10.4833C11.637 4 12.7435 4.47411 13.5592 5.31802C14.375 6.16193 14.8333 7.30653 14.8333 8.5V12.058Z" fill="#716E77"/>
<path id="Vector 358 (Stroke)" fill-rule="evenodd" clip-rule="evenodd" d="M10 2C10.2761 2 10.5 2.22386 10.5 2.5V3.5C10.5 3.77614 10.2761 4 10 4C9.72386 4 9.5 3.77614 9.5 3.5V2.5C9.5 2.22386 9.72386 2 10 2Z" fill="#716E77"/>
<path id="Ellipse 2615 (Stroke)" fill-rule="evenodd" clip-rule="evenodd" d="M10.7071 16.7071C10.8946 16.5196 11 16.2652 11 16H12C12 16.3541 11.9061 16.6985 11.7321 17C11.6454 17.1501 11.5389 17.2895 11.4142 17.4142C11.0391 17.7893 10.5304 18 10 18C9.46957 18 8.96086 17.7893 8.58579 17.4142C8.46111 17.2895 8.3546 17.1501 8.26794 17C8.09391 16.6985 8 16.3541 8 16H9C9 16.2652 9.10536 16.5196 9.29289 16.7071C9.48043 16.8946 9.73478 17 10 17C10.2652 17 10.5196 16.8946 10.7071 16.7071Z" fill="#716E77"/>
</g>
</g>
</svg>
