<svg width="20" height="20" viewBox="0 0 20 20" fill="none" xmlns="http://www.w3.org/2000/svg">
<g id="ri:wechat-2-fill">
<path id="Vector" d="M15.4543 15.1542C17.2034 13.8975 18.3359 12 18.3359 9.92333C18.3359 6.1025 14.6068 3 10.0026 3C5.39844 3 1.66927 6.1025 1.66927 9.92333C1.66927 13.7433 5.39844 16.8467 10.0026 16.8467C10.9254 16.8519 11.844 16.7222 12.7293 16.4617C12.8059 16.4367 12.9093 16.4367 12.9859 16.4367C13.1401 16.4367 13.2943 16.4867 13.4234 16.5642L15.2493 17.6158C15.3009 17.6408 15.3526 17.6667 15.4043 17.6667C15.4788 17.666 15.5502 17.6362 15.603 17.5835C15.6558 17.5308 15.6859 17.4596 15.6868 17.385C15.6868 17.3075 15.6618 17.2567 15.6351 17.18C15.6101 17.1542 15.3784 16.3075 15.2493 15.795C15.2493 15.7433 15.2243 15.6667 15.2243 15.6158C15.2243 15.41 15.3001 15.2567 15.4543 15.1542Z" fill="#716E77"/>
<path id="Vector 354" d="M13 11C12.4545 12.6512 9.18182 14.5226 7 11" stroke="white" stroke-width="1.5" stroke-linecap="round"/>
</g>
</svg>
