<svg width="16" height="16" viewBox="0 0 16 16" fill="none" xmlns="http://www.w3.org/2000/svg">
<g id="mingcute:thumb-up-2-fill" clip-path="url(#clip0_5795_4145)">
<g id="Group">
<path id="Vector" d="M10 5.33464H11.6033C11.994 5.33458 12.3799 5.42035 12.7337 5.58589C13.0876 5.75143 13.4007 5.99269 13.651 6.29261C13.9014 6.59253 14.0827 6.94379 14.1823 7.32153C14.2819 7.69928 14.2973 8.09429 14.2273 8.47864L13.6207 11.812C13.5089 12.4262 13.1852 12.9817 12.706 13.3818C12.2267 13.7818 11.6223 14.0011 10.998 14.0013H5.33333V6.00131L6.54733 2.14264C6.74467 1.68264 7.254 1.26531 7.89667 1.38931C8.916 1.58464 10 2.37864 10 3.66797V5.33464ZM4 6.00131C3.46957 6.00131 2.96086 6.21202 2.58579 6.58709C2.21071 6.96216 2 7.47087 2 8.00131V12.0013C2 12.5317 2.21071 13.0404 2.58579 13.4155C2.96086 13.7906 3.46957 14.0013 4 14.0013V6.00131Z" fill="#8E66FF"/>
</g>
</g>
<defs>
<clipPath id="clip0_5795_4145">
<rect width="16" height="16" fill="white"/>
</clipPath>
</defs>
</svg>
