<svg width="16" height="17" viewBox="0 0 16 17" fill="none" xmlns="http://www.w3.org/2000/svg">
<g id="Group">
<path id="Vector" d="M10.2857 5.00781H1.71429C1.18173 5.00781 0.75 5.43954 0.75 5.9721V14.5435C0.75 15.0761 1.18172 15.5078 1.71429 15.5078H10.2857C10.8183 15.5078 11.25 15.0761 11.25 14.5435V5.9721C11.25 5.43954 10.8183 5.00781 10.2857 5.00781Z" stroke="#B8B6BE" stroke-width="1.5" stroke-linecap="round" stroke-linejoin="round"/>
<g id="Vector_2">
<mask id="path-2-inside-1_5816_2850" fill="white">
<path d="M14.1429 13.2578C15.1643 13.2578 16 12.4221 16 11.4007V2.11496C16 1.09353 15.1643 0.257812 14.1429 0.257812H4.85714C3.83571 0.257812 3 1.09353 3 2.11496"/>
</mask>
<path d="M14.1429 14.7578C13.3144 14.7578 12.6429 14.0862 12.6429 13.2578C12.6429 12.4294 13.3144 11.7578 14.1429 11.7578V14.7578ZM4.5 2.11496C4.5 2.94338 3.82843 3.61496 3 3.61496C2.17157 3.61496 1.5 2.94338 1.5 2.11496H4.5ZM14.1429 11.7578C14.3359 11.7578 14.5 11.5937 14.5 11.4007H17.5C17.5 13.2505 15.9927 14.7578 14.1429 14.7578V11.7578ZM14.5 11.4007V2.11496H17.5V11.4007H14.5ZM14.5 2.11496C14.5 1.92195 14.3359 1.75781 14.1429 1.75781V-1.24219C15.9927 -1.24219 17.5 0.2651 17.5 2.11496H14.5ZM14.1429 1.75781H4.85714V-1.24219H14.1429V1.75781ZM4.85714 1.75781C4.66414 1.75781 4.5 1.92195 4.5 2.11496H1.5C1.5 0.2651 3.00729 -1.24219 4.85714 -1.24219V1.75781Z" fill="#B8B6BE" mask="url(#path-2-inside-1_5816_2850)"/>
</g>
</g>
</svg>
